HIERARCHY
ROOT Hips
{
    OFFSET 0.000000 0.000000 0.000000
    CHANNELS 6 Xposition Yposition Zposition Zrotation Xrotation Yrotation
    JOINT Spine
    {
        OFFSET -0.000000 8.267054 0.000000
        CHANNELS 3 Zrotation Xrotation Yrotation
        JOINT Spine1
        {
            OFFSET -0.000000 23.684998 0.000000
            CHANNELS 3 Zrotation Xrotation Yrotation
            JOINT Neck
            {
                OFFSET -0.000000 23.587730 2.144339
                CHANNELS 3 Zrotation Xrotation Yrotation
                JOINT Head
                {
                    OFFSET -0.000000 14.114483 -2.016355
                    CHANNELS 3 Zrotation Xrotation Yrotation
                    End Site
                    {
                        OFFSET -0.000000 25.204432 0.000000
                    }
                }
            }
            JOINT LeftShoulder
            {
                OFFSET 4.070090 22.062094 -0.247321
                CHANNELS 3 Zrotation Xrotation Yrotation
                JOINT LeftArm
                {
                    OFFSET 10.395479 0.000000 0.000000
                    CHANNELS 3 Zrotation Xrotation Yrotation
                    JOINT LeftForeArm
                    {
                        OFFSET 37.713577 0.000000 0.000000
                        CHANNELS 3 Zrotation Xrotation Yrotation
                        JOINT LeftHand
                        {
                            OFFSET 20.284107 0.000000 0.000000
                            CHANNELS 3 Zrotation Xrotation Yrotation
                            End Site
                            {
                                OFFSET 15.122660 0.000000 0.000000
                            }
                        }
                    }
                }
            }
            JOINT RightShoulder
            {
                OFFSET -3.979272 22.062094 -0.247321
                CHANNELS 3 Zrotation Xrotation Yrotation
                JOINT RightArm
                {
                    OFFSET -10.395479 0.000000 0.000000
                    CHANNELS 3 Zrotation Xrotation Yrotation
                    JOINT RightForeArm
                    {
                        OFFSET -37.713577 0.000000 0.000000
                        CHANNELS 3 Zrotation Xrotation Yrotation
                        JOINT RightHand
                        {
                            OFFSET -20.284107 0.000000 0.000000
                            CHANNELS 3 Zrotation Xrotation Yrotation
                            End Site
                            {
                                OFFSET -15.122660 0.000000 0.000000
                            }
                        }
                    }
                }
            }
        }
    }
    JOINT LeftUpLeg
    {
        OFFSET 10.081773 0.000000 0.000000
        CHANNELS 3 Zrotation Xrotation Yrotation
        JOINT LeftLeg
        {
            OFFSET -0.000000 -36.382099 0.000000
            CHANNELS 3 Zrotation Xrotation Yrotation
            JOINT LeftFoot
            {
                OFFSET -0.000000 -49.182560 0.000000
                CHANNELS 3 Zrotation Xrotation Yrotation
                JOINT LeftToeBase
                {
                    OFFSET -0.000000 -6.553152 15.122660
                    CHANNELS 3 Zrotation Xrotation Yrotation
                    End Site
                    {
                        OFFSET -0.000000 0.000000 4.032709
                    }
                }
            }
        }
    }
    JOINT RightUpLeg
    {
        OFFSET -10.081773 0.000000 0.000000
        CHANNELS 3 Zrotation Xrotation Yrotation
        JOINT RightLeg
        {
            OFFSET -0.000000 -36.382099 0.000000
            CHANNELS 3 Zrotation Xrotation Yrotation
            JOINT RightFoot
            {
                OFFSET -0.000000 -49.182560 0.000000
                CHANNELS 3 Zrotation Xrotation Yrotation
                JOINT RightToeBase
                {
                    OFFSET -0.000000 -6.553152 15.122660
                    CHANNELS 3 Zrotation Xrotation Yrotation
                    End Site
                    {
                        OFFSET -0.000000 0.000000 4.032709
                    }
                }
            }
        }
    }
}
MOTION
Frames:    4
Frame Time:    0.008333
25.868628    88.717178    -18.815098    1.988163    -0.896821    -116.946457    -1.123293    -2.898986    -0.348782    -1.092553    1.087697    -0.310089    -1.188340    21.193619    -12.015465    9.133876    10.515900    -12.123899    5.856536    9.496575    -7.519903    -61.310287    54.530590    -13.852767    1.935516    -20.295803    -19.929358    6.420553    -19.615583    6.829690    -2.253973    6.034656    0.953541    63.436184    52.154762    13.569739    -3.706662    -13.666592    27.781433    -9.089668    -12.236860    -6.912229    17.634487    -13.341988    -2.375125    3.867113    27.603468    -10.611794    -12.164393    -7.376416    -6.964089    0.000000    0.000000    0.000000    -15.968597    -8.828808    2.192220    1.804947    32.718502    1.961859    11.689842    -10.304804    -3.919061    0.000000    0.000000    0.000000    
26.413691    88.791672    -19.462425    2.135702    -0.859034    -116.578323    -1.037721    -2.858460    -0.267163    -1.203197    1.037683    -0.230467    -1.305708    21.188328    -12.005413    9.487057    10.356301    -12.088240    5.823813    9.536127    -7.514502    -61.528351    54.183884    -13.729058    1.994923    -20.449335    -19.797991    6.593214    -19.746439    6.939826    -2.279030    5.992908    1.008024    63.339813    52.434006    13.671545    -3.672566    -13.520805    27.676523    -8.770224    -12.127140    -6.830175    17.985989    -13.730049    -2.145189    3.955170    27.707874    -9.880798    -11.845857    -6.611740    -6.829254    0.000000    0.000000    0.000000    -15.615477    -8.936876    1.167077    1.884117    32.794353    2.078276    11.592470    -10.621698    -3.638827    0.000000    0.000000    0.000000    
26.923422    88.878563    -20.069269    2.268567    -0.852204    -116.228256    -0.983823    -2.824438    -0.185877    -1.310520    0.976627    -0.150615    -1.424059    21.193342    -12.002810    9.850079    10.219451    -12.061049    5.801541    9.583191    -7.508943    -61.729706    53.935135    -13.633368    2.058524    -20.641642    -19.735098    6.789285    -19.911329    7.078156    -2.302482    5.968035    1.063552    63.265022    52.706802    13.727182    -3.634527    -13.423909    27.629940    -8.474707    -12.061322    -6.781063    18.245958    -14.110333    -1.934681    3.999531    27.841917    -9.048550    -11.442382    -5.917532    -6.672846    0.000000    0.000000    0.000000    -15.314528    -9.039022    0.236439    1.963522    32.842331    2.186667    11.493455    -10.854427    -3.362653    0.000000    0.000000    0.000000    
27.432692    88.981140    -20.679054    2.391613    -0.874035    -115.868294    -0.957510    -2.793610    -0.100599    -1.420587    0.907482    -0.065785    -1.544302    21.217646    -12.002305    10.236946    10.068817    -12.033032    5.785517    9.638511    -7.502359    -61.922474    53.765770    -13.563116    2.121652    -20.884441    -19.733294    7.035218    -20.120903    7.246631    -2.328063    5.954436    1.121422    63.205734    52.987614    13.743717    -3.587532    -13.360571    27.631889    -8.188457    -12.027623    -6.751554    18.430397    -14.505241    -1.734268    3.999377    28.019659    -8.070043    -10.936841    -5.272541    -6.490173    0.000000    0.000000    0.000000    -15.039909    -9.134090    -0.638457    2.054010    32.866409    2.295904    11.390357    -11.038640    -3.095524    0.000000    0.000000    0.000000    
